<mxfile host="app.diagrams.net" agent="Mozilla/5.0 (Windows NT 10.0; Win64; x64) AppleWebKit/537.36 (KHTML, like Gecko) Chrome/127.0.0.0 Safari/537.36 OPR/113.0.0.0" version="24.7.16">
  <diagram name="Página-1" id="svjExc7lHkP1cCi1oY9i">
    <mxGraphModel dx="671" dy="824" grid="1" gridSize="10" guides="1" tooltips="1" connect="1" arrows="1" fold="1" page="1" pageScale="1" pageWidth="827" pageHeight="1169" math="0" shadow="0">
      <root>
        <mxCell id="0" />
        <mxCell id="1" parent="0" />
        <mxCell id="FKmXd1NLTLE28B9CIvFJ-1" value="Usuário" style="shape=umlActor;verticalLabelPosition=bottom;verticalAlign=top;html=1;" vertex="1" parent="1">
          <mxGeometry x="320" y="70" width="30" height="60" as="geometry" />
        </mxCell>
        <mxCell id="FKmXd1NLTLE28B9CIvFJ-2" value="" style="endArrow=none;dashed=1;html=1;rounded=0;" edge="1" parent="1">
          <mxGeometry width="50" height="50" relative="1" as="geometry">
            <mxPoint x="335" y="499" as="sourcePoint" />
            <mxPoint x="334.72" y="160" as="targetPoint" />
          </mxGeometry>
        </mxCell>
        <mxCell id="FKmXd1NLTLE28B9CIvFJ-3" style="edgeStyle=orthogonalEdgeStyle;rounded=0;orthogonalLoop=1;jettySize=auto;html=1;curved=0;" edge="1" parent="1">
          <mxGeometry relative="1" as="geometry">
            <mxPoint x="340" y="200" as="sourcePoint" />
            <mxPoint x="475" y="200" as="targetPoint" />
            <Array as="points" />
          </mxGeometry>
        </mxCell>
        <mxCell id="FKmXd1NLTLE28B9CIvFJ-4" value="executarOrdem()" style="edgeLabel;html=1;align=center;verticalAlign=middle;resizable=0;points=[];" vertex="1" connectable="0" parent="FKmXd1NLTLE28B9CIvFJ-3">
          <mxGeometry x="-0.1276" y="1" relative="1" as="geometry">
            <mxPoint x="4" y="-7" as="offset" />
          </mxGeometry>
        </mxCell>
        <mxCell id="FKmXd1NLTLE28B9CIvFJ-5" value="" style="html=1;points=[[0,0,0,0,5],[0,1,0,0,-5],[1,0,0,0,5],[1,1,0,0,-5]];perimeter=orthogonalPerimeter;outlineConnect=0;targetShapes=umlLifeline;portConstraint=eastwest;newEdgeStyle={&quot;curved&quot;:0,&quot;rounded&quot;:0};" vertex="1" parent="1">
          <mxGeometry x="330" y="180" width="10" height="286" as="geometry" />
        </mxCell>
        <mxCell id="FKmXd1NLTLE28B9CIvFJ-6" value=":Usuario" style="shape=umlLifeline;perimeter=lifelinePerimeter;whiteSpace=wrap;html=1;container=1;dropTarget=0;collapsible=0;recursiveResize=0;outlineConnect=0;portConstraint=eastwest;newEdgeStyle={&quot;curved&quot;:0,&quot;rounded&quot;:0};" vertex="1" parent="1">
          <mxGeometry x="626" y="96" width="140" height="397" as="geometry" />
        </mxCell>
        <mxCell id="FKmXd1NLTLE28B9CIvFJ-7" value="" style="html=1;points=[[0,0,0,0,5],[0,1,0,0,-5],[1,0,0,0,5],[1,1,0,0,-5]];perimeter=orthogonalPerimeter;outlineConnect=0;targetShapes=umlLifeline;portConstraint=eastwest;newEdgeStyle={&quot;curved&quot;:0,&quot;rounded&quot;:0};" vertex="1" parent="FKmXd1NLTLE28B9CIvFJ-6">
          <mxGeometry x="65" y="70" width="10" height="296" as="geometry" />
        </mxCell>
        <mxCell id="FKmXd1NLTLE28B9CIvFJ-8" value=":APIB3" style="shape=umlLifeline;perimeter=lifelinePerimeter;whiteSpace=wrap;html=1;container=1;dropTarget=0;collapsible=0;recursiveResize=0;outlineConnect=0;portConstraint=eastwest;newEdgeStyle={&quot;curved&quot;:0,&quot;rounded&quot;:0};" vertex="1" parent="1">
          <mxGeometry x="790" y="97" width="130" height="390" as="geometry" />
        </mxCell>
        <mxCell id="FKmXd1NLTLE28B9CIvFJ-9" value="" style="html=1;points=[[0,0,0,0,5],[0,1,0,0,-5],[1,0,0,0,5],[1,1,0,0,-5]];perimeter=orthogonalPerimeter;outlineConnect=0;targetShapes=umlLifeline;portConstraint=eastwest;newEdgeStyle={&quot;curved&quot;:0,&quot;rounded&quot;:0};" vertex="1" parent="FKmXd1NLTLE28B9CIvFJ-8">
          <mxGeometry x="61" y="164" width="9" height="24" as="geometry" />
        </mxCell>
        <mxCell id="FKmXd1NLTLE28B9CIvFJ-10" value="" style="endArrow=open;html=1;rounded=0;dashed=1;startArrow=none;startFill=0;endFill=0;" edge="1" parent="1">
          <mxGeometry width="50" height="50" relative="1" as="geometry">
            <mxPoint x="848" y="283" as="sourcePoint" />
            <mxPoint x="482" y="283.0000000000001" as="targetPoint" />
          </mxGeometry>
        </mxCell>
        <mxCell id="FKmXd1NLTLE28B9CIvFJ-11" value="sucessoEnvio (bool)" style="edgeLabel;html=1;align=center;verticalAlign=middle;resizable=0;points=[];" vertex="1" connectable="0" parent="FKmXd1NLTLE28B9CIvFJ-10">
          <mxGeometry x="-0.0968" y="2" relative="1" as="geometry">
            <mxPoint x="71" y="-11" as="offset" />
          </mxGeometry>
        </mxCell>
        <mxCell id="FKmXd1NLTLE28B9CIvFJ-12" style="edgeStyle=orthogonalEdgeStyle;rounded=0;orthogonalLoop=1;jettySize=auto;html=1;curved=0;startArrow=none;startFill=0;endArrow=classic;endFill=1;" edge="1" parent="1">
          <mxGeometry relative="1" as="geometry">
            <mxPoint x="485" y="212" as="sourcePoint" />
            <mxPoint x="689" y="213" as="targetPoint" />
            <Array as="points">
              <mxPoint x="485" y="213" />
            </Array>
          </mxGeometry>
        </mxCell>
        <mxCell id="FKmXd1NLTLE28B9CIvFJ-13" value="verificarQuantidadeDisponivel()" style="edgeLabel;html=1;align=center;verticalAlign=middle;resizable=0;points=[];" vertex="1" connectable="0" parent="FKmXd1NLTLE28B9CIvFJ-12">
          <mxGeometry x="-0.3857" y="-2" relative="1" as="geometry">
            <mxPoint x="33" y="-11" as="offset" />
          </mxGeometry>
        </mxCell>
        <mxCell id="FKmXd1NLTLE28B9CIvFJ-14" value="" style="edgeStyle=none;orthogonalLoop=1;jettySize=auto;html=1;rounded=0;dashed=1;startArrow=none;startFill=0;endArrow=open;endFill=0;entryX=0.8;entryY=0.916;entryDx=0;entryDy=0;entryPerimeter=0;" edge="1" parent="1" target="FKmXd1NLTLE28B9CIvFJ-5">
          <mxGeometry width="100" relative="1" as="geometry">
            <mxPoint x="690" y="441" as="sourcePoint" />
            <mxPoint x="342" y="442" as="targetPoint" />
            <Array as="points" />
          </mxGeometry>
        </mxCell>
        <mxCell id="FKmXd1NLTLE28B9CIvFJ-15" value="Notificação" style="edgeLabel;html=1;align=center;verticalAlign=middle;resizable=0;points=[];" vertex="1" connectable="0" parent="FKmXd1NLTLE28B9CIvFJ-14">
          <mxGeometry x="-0.1602" y="1" relative="1" as="geometry">
            <mxPoint x="-144" y="-10" as="offset" />
          </mxGeometry>
        </mxCell>
        <mxCell id="FKmXd1NLTLE28B9CIvFJ-16" value=":OrdemVenda" style="shape=umlLifeline;perimeter=lifelinePerimeter;whiteSpace=wrap;html=1;container=1;dropTarget=0;collapsible=0;recursiveResize=0;outlineConnect=0;portConstraint=eastwest;newEdgeStyle={&quot;curved&quot;:0,&quot;rounded&quot;:0};" vertex="1" parent="1">
          <mxGeometry x="414" y="100" width="130" height="397" as="geometry" />
        </mxCell>
        <mxCell id="FKmXd1NLTLE28B9CIvFJ-17" value="" style="html=1;points=[[0,0,0,0,5],[0,1,0,0,-5],[1,0,0,0,5],[1,1,0,0,-5]];perimeter=orthogonalPerimeter;outlineConnect=0;targetShapes=umlLifeline;portConstraint=eastwest;newEdgeStyle={&quot;curved&quot;:0,&quot;rounded&quot;:0};" vertex="1" parent="FKmXd1NLTLE28B9CIvFJ-16">
          <mxGeometry x="60" y="99" width="10" height="225" as="geometry" />
        </mxCell>
        <mxCell id="FKmXd1NLTLE28B9CIvFJ-18" value="" style="edgeStyle=none;orthogonalLoop=1;jettySize=auto;html=1;rounded=0;startArrow=open;startFill=0;endArrow=none;endFill=0;dashed=1;" edge="1" parent="1" target="FKmXd1NLTLE28B9CIvFJ-7">
          <mxGeometry width="100" relative="1" as="geometry">
            <mxPoint x="484" y="237" as="sourcePoint" />
            <mxPoint x="954.6900000000003" y="237.0000000000001" as="targetPoint" />
            <Array as="points" />
          </mxGeometry>
        </mxCell>
        <mxCell id="FKmXd1NLTLE28B9CIvFJ-19" value="quantidade" style="edgeLabel;html=1;align=center;verticalAlign=middle;resizable=0;points=[];" vertex="1" connectable="0" parent="FKmXd1NLTLE28B9CIvFJ-18">
          <mxGeometry x="-0.084" y="-1" relative="1" as="geometry">
            <mxPoint y="-9" as="offset" />
          </mxGeometry>
        </mxCell>
        <mxCell id="FKmXd1NLTLE28B9CIvFJ-20" value="" style="edgeStyle=none;orthogonalLoop=1;jettySize=auto;html=1;rounded=0;" edge="1" parent="1">
          <mxGeometry width="100" relative="1" as="geometry">
            <mxPoint x="485" y="262" as="sourcePoint" />
            <mxPoint x="850" y="262" as="targetPoint" />
            <Array as="points" />
          </mxGeometry>
        </mxCell>
        <mxCell id="FKmXd1NLTLE28B9CIvFJ-21" value="enviarOrdem()" style="edgeLabel;html=1;align=center;verticalAlign=middle;resizable=0;points=[];" vertex="1" connectable="0" parent="FKmXd1NLTLE28B9CIvFJ-20">
          <mxGeometry x="-0.1625" relative="1" as="geometry">
            <mxPoint x="-48" y="-8" as="offset" />
          </mxGeometry>
        </mxCell>
        <mxCell id="FKmXd1NLTLE28B9CIvFJ-22" value="" style="endArrow=classic;html=1;rounded=0;entryX=0.2;entryY=0.518;entryDx=0;entryDy=0;entryPerimeter=0;" edge="1" parent="1">
          <mxGeometry width="50" height="50" relative="1" as="geometry">
            <mxPoint x="484" y="312" as="sourcePoint" />
            <mxPoint x="692.0000000000002" y="312.09000000000003" as="targetPoint" />
            <Array as="points">
              <mxPoint x="635" y="312" />
            </Array>
          </mxGeometry>
        </mxCell>
        <mxCell id="FKmXd1NLTLE28B9CIvFJ-23" value="atualizarSaldoUsuario()" style="edgeLabel;html=1;align=center;verticalAlign=middle;resizable=0;points=[];" vertex="1" connectable="0" parent="FKmXd1NLTLE28B9CIvFJ-22">
          <mxGeometry x="0.3906" y="2" relative="1" as="geometry">
            <mxPoint x="-40" y="-8" as="offset" />
          </mxGeometry>
        </mxCell>
        <mxCell id="FKmXd1NLTLE28B9CIvFJ-24" value="" style="endArrow=classic;html=1;rounded=0;" edge="1" parent="1">
          <mxGeometry width="50" height="50" relative="1" as="geometry">
            <mxPoint x="701" y="329" as="sourcePoint" />
            <mxPoint x="701" y="341" as="targetPoint" />
            <Array as="points">
              <mxPoint x="762.19" y="329" />
              <mxPoint x="762" y="341" />
              <mxPoint x="730" y="341" />
            </Array>
          </mxGeometry>
        </mxCell>
        <mxCell id="FKmXd1NLTLE28B9CIvFJ-25" value="creditarSaldo()" style="edgeLabel;html=1;align=center;verticalAlign=middle;resizable=0;points=[];" vertex="1" connectable="0" parent="FKmXd1NLTLE28B9CIvFJ-24">
          <mxGeometry x="-0.0386" y="2" relative="1" as="geometry">
            <mxPoint x="-25" y="-12" as="offset" />
          </mxGeometry>
        </mxCell>
        <mxCell id="FKmXd1NLTLE28B9CIvFJ-26" value="" style="endArrow=classic;html=1;rounded=0;entryX=0.2;entryY=0.518;entryDx=0;entryDy=0;entryPerimeter=0;" edge="1" parent="1">
          <mxGeometry width="50" height="50" relative="1" as="geometry">
            <mxPoint x="486" y="379" as="sourcePoint" />
            <mxPoint x="694.0000000000002" y="379.09000000000003" as="targetPoint" />
            <Array as="points">
              <mxPoint x="637" y="379" />
            </Array>
          </mxGeometry>
        </mxCell>
        <mxCell id="FKmXd1NLTLE28B9CIvFJ-27" value="atualizarCarteiraUsuario(qtdeAcao)" style="edgeLabel;html=1;align=center;verticalAlign=middle;resizable=0;points=[];" vertex="1" connectable="0" parent="FKmXd1NLTLE28B9CIvFJ-26">
          <mxGeometry x="0.3906" y="2" relative="1" as="geometry">
            <mxPoint x="-40" y="-8" as="offset" />
          </mxGeometry>
        </mxCell>
        <mxCell id="FKmXd1NLTLE28B9CIvFJ-28" value=":Carteira" style="shape=umlLifeline;perimeter=lifelinePerimeter;whiteSpace=wrap;html=1;container=1;dropTarget=0;collapsible=0;recursiveResize=0;outlineConnect=0;portConstraint=eastwest;newEdgeStyle={&quot;curved&quot;:0,&quot;rounded&quot;:0};" vertex="1" parent="1">
          <mxGeometry x="945" y="98" width="130" height="391" as="geometry" />
        </mxCell>
        <mxCell id="FKmXd1NLTLE28B9CIvFJ-29" value="" style="html=1;points=[[0,0,0,0,5],[0,1,0,0,-5],[1,0,0,0,5],[1,1,0,0,-5]];perimeter=orthogonalPerimeter;outlineConnect=0;targetShapes=umlLifeline;portConstraint=eastwest;newEdgeStyle={&quot;curved&quot;:0,&quot;rounded&quot;:0};" vertex="1" parent="FKmXd1NLTLE28B9CIvFJ-28">
          <mxGeometry x="61" y="70" width="9" height="284" as="geometry" />
        </mxCell>
        <mxCell id="FKmXd1NLTLE28B9CIvFJ-30" value="novaAcao:Acao" style="shape=umlLifeline;perimeter=lifelinePerimeter;whiteSpace=wrap;html=1;container=1;dropTarget=0;collapsible=0;recursiveResize=0;outlineConnect=0;portConstraint=eastwest;newEdgeStyle={&quot;curved&quot;:0,&quot;rounded&quot;:0};" vertex="1" parent="1">
          <mxGeometry x="1096" y="98" width="130" height="393" as="geometry" />
        </mxCell>
        <mxCell id="FKmXd1NLTLE28B9CIvFJ-31" value="" style="html=1;points=[[0,0,0,0,5],[0,1,0,0,-5],[1,0,0,0,5],[1,1,0,0,-5]];perimeter=orthogonalPerimeter;outlineConnect=0;targetShapes=umlLifeline;portConstraint=eastwest;newEdgeStyle={&quot;curved&quot;:0,&quot;rounded&quot;:0};" vertex="1" parent="FKmXd1NLTLE28B9CIvFJ-30">
          <mxGeometry x="61" y="259" width="9" height="97" as="geometry" />
        </mxCell>
        <mxCell id="FKmXd1NLTLE28B9CIvFJ-32" value="" style="endArrow=classic;html=1;rounded=0;" edge="1" parent="1">
          <mxGeometry width="50" height="50" relative="1" as="geometry">
            <mxPoint x="485" y="357" as="sourcePoint" />
            <mxPoint x="1157" y="357" as="targetPoint" />
          </mxGeometry>
        </mxCell>
        <mxCell id="FKmXd1NLTLE28B9CIvFJ-33" value="&amp;lt;&amp;lt;create&amp;gt;&amp;gt;" style="edgeLabel;html=1;align=center;verticalAlign=middle;resizable=0;points=[];" vertex="1" connectable="0" parent="FKmXd1NLTLE28B9CIvFJ-32">
          <mxGeometry x="-0.1247" y="1" relative="1" as="geometry">
            <mxPoint x="-259" y="-9" as="offset" />
          </mxGeometry>
        </mxCell>
        <mxCell id="FKmXd1NLTLE28B9CIvFJ-34" value="" style="endArrow=classic;html=1;rounded=0;" edge="1" parent="1">
          <mxGeometry width="50" height="50" relative="1" as="geometry">
            <mxPoint x="701" y="385" as="sourcePoint" />
            <mxPoint x="1005" y="385" as="targetPoint" />
          </mxGeometry>
        </mxCell>
        <mxCell id="FKmXd1NLTLE28B9CIvFJ-35" value="removerAcao(qtdeAcao)" style="edgeLabel;html=1;align=center;verticalAlign=middle;resizable=0;points=[];" vertex="1" connectable="0" parent="FKmXd1NLTLE28B9CIvFJ-34">
          <mxGeometry x="0.326" y="-1" relative="1" as="geometry">
            <mxPoint x="-129" y="-11" as="offset" />
          </mxGeometry>
        </mxCell>
        <mxCell id="FKmXd1NLTLE28B9CIvFJ-36" value=":historicoTransacoes" style="shape=umlLifeline;perimeter=lifelinePerimeter;whiteSpace=wrap;html=1;container=1;dropTarget=0;collapsible=0;recursiveResize=0;outlineConnect=0;portConstraint=eastwest;newEdgeStyle={&quot;curved&quot;:0,&quot;rounded&quot;:0};" vertex="1" parent="1">
          <mxGeometry x="1243" y="98" width="130" height="393" as="geometry" />
        </mxCell>
        <mxCell id="FKmXd1NLTLE28B9CIvFJ-37" value="" style="html=1;points=[[0,0,0,0,5],[0,1,0,0,-5],[1,0,0,0,5],[1,1,0,0,-5]];perimeter=orthogonalPerimeter;outlineConnect=0;targetShapes=umlLifeline;portConstraint=eastwest;newEdgeStyle={&quot;curved&quot;:0,&quot;rounded&quot;:0};" vertex="1" parent="FKmXd1NLTLE28B9CIvFJ-36">
          <mxGeometry x="61" y="70" width="9" height="286" as="geometry" />
        </mxCell>
        <mxCell id="FKmXd1NLTLE28B9CIvFJ-38" value="" style="endArrow=classic;html=1;rounded=0;" edge="1" parent="1">
          <mxGeometry width="50" height="50" relative="1" as="geometry">
            <mxPoint x="702" y="408" as="sourcePoint" />
            <mxPoint x="1305" y="408" as="targetPoint" />
          </mxGeometry>
        </mxCell>
        <mxCell id="FKmXd1NLTLE28B9CIvFJ-39" value="adicionarTransacao()" style="edgeLabel;html=1;align=center;verticalAlign=middle;resizable=0;points=[];" vertex="1" connectable="0" parent="FKmXd1NLTLE28B9CIvFJ-38">
          <mxGeometry x="-0.2296" y="-1" relative="1" as="geometry">
            <mxPoint x="-167" y="-9" as="offset" />
          </mxGeometry>
        </mxCell>
        <mxCell id="FKmXd1NLTLE28B9CIvFJ-40" value="" style="endArrow=classic;html=1;rounded=0;" edge="1" parent="1">
          <mxGeometry width="50" height="50" relative="1" as="geometry">
            <mxPoint x="485" y="424" as="sourcePoint" />
            <mxPoint x="692" y="424" as="targetPoint" />
          </mxGeometry>
        </mxCell>
        <mxCell id="FKmXd1NLTLE28B9CIvFJ-41" value="adicionarNotificacao()" style="edgeLabel;html=1;align=center;verticalAlign=middle;resizable=0;points=[];" vertex="1" connectable="0" parent="FKmXd1NLTLE28B9CIvFJ-40">
          <mxGeometry x="0.329" y="-2" relative="1" as="geometry">
            <mxPoint x="-81" y="-10" as="offset" />
          </mxGeometry>
        </mxCell>
      </root>
    </mxGraphModel>
  </diagram>
</mxfile>
